<svg version="1.1" id="Layer_1" xmlns="http://www.w3.org/2000/svg" xmlns:xlink="http://www.w3.org/1999/xlink" x="0px" y="0px"
	 width="100%" viewBox="0 0 1235 1244" enable-background="new 0 0 1235 1244" xml:space="preserve">
<path fill="#0B426A" opacity="1.000000" stroke="none" 
	d="
M499.806152,476.810638 
	C507.488068,465.375977 518.757446,462.169800 531.813721,462.278076 
	C540.239807,462.348022 548.672852,461.470459 557.104248,461.047211 
	C562.927002,460.754883 565.841614,456.989380 568.073242,452.194183 
	C572.482605,442.719910 577.010010,433.300537 581.656555,423.504364 
	C592.040283,426.456116 595.259705,435.922882 600.534424,444.166534 
	C601.418335,442.213165 602.181152,440.540039 602.933716,438.862335 
	C607.849243,427.903900 613.302856,427.347046 620.292297,437.283051 
	C623.157776,441.356567 625.504150,445.791565 628.207642,449.984161 
	C629.429993,451.879761 630.947510,453.585052 633.018005,456.266144 
	C633.938721,454.039490 634.704224,452.827332 634.938843,451.519836 
	C636.849304,440.875763 638.746521,430.227814 640.477966,419.553497 
	C642.260925,408.562042 638.982727,404.263123 628.045227,402.175415 
	C619.869202,400.614838 611.879639,400.825806 603.836609,403.033020 
	C596.401794,405.073303 590.196594,399.261566 592.077148,391.627869 
	C595.393127,378.167114 596.725464,363.932251 606.205078,352.638672 
	C607.542175,351.045746 608.262268,348.831360 608.926697,346.793396 
	C615.656921,326.150177 627.167419,308.352509 641.824219,292.598633 
	C647.405579,286.599518 648.594971,280.909515 644.584473,273.745544 
	C641.346924,267.962311 638.659912,261.870850 635.151306,254.743256 
	C641.906311,257.549316 647.668579,259.942993 653.430786,262.336670 
	C653.732544,261.941925 654.034241,261.547211 654.335999,261.152466 
	C646.912598,252.974289 639.489258,244.796112 631.472168,235.963882 
	C655.217468,240.864761 677.281738,247.526901 695.109497,263.789246 
	C703.722046,271.645538 712.362183,279.518829 720.399902,287.947021 
	C732.506836,300.642029 738.896118,316.573364 741.664490,333.439148 
	C744.163757,348.665802 751.340881,360.419403 761.239014,371.756409 
	C783.448120,397.194000 794.467285,427.582428 796.661072,461.013580 
	C798.009399,481.561249 792.367249,500.672211 778.202209,515.853027 
	C768.288574,526.477478 762.672729,538.476807 760.191895,552.334717 
	C755.180298,580.329834 749.322693,608.226074 745.773315,636.409790 
	C743.795593,652.114197 745.499268,668.323914 746.067871,684.287231 
	C746.303345,690.898682 751.532471,693.024414 757.651306,689.679138 
	C762.746826,686.893311 767.594299,683.552490 772.904968,681.284790 
	C781.299866,677.699890 790.120483,678.324341 798.954285,679.915222 
	C817.448669,683.245850 835.984619,686.345642 854.486572,689.635193 
	C864.985535,691.501892 873.697205,696.871094 881.460938,703.943909 
	C884.170227,706.412109 887.039429,708.762329 889.415649,711.527405 
	C895.914490,719.089661 903.728577,723.228271 913.916321,724.182617 
	C924.735168,725.196045 934.994751,728.952454 944.081543,735.224121 
	C955.913696,743.390564 960.383362,755.041321 956.160156,768.742065 
	C954.277405,774.849976 951.511597,780.927002 947.984131,786.247253 
	C926.511963,818.632019 902.876038,849.371521 876.823547,878.234680 
	C856.281189,900.993164 835.806641,923.813232 815.409119,946.701355 
	C813.353577,949.007812 811.382019,950.094482 808.217346,950.015015 
	C799.085510,949.785583 789.944275,949.933899 780.437500,949.933899 
	C781.445923,940.494751 784.217163,932.096069 788.941040,924.674377 
	C795.450012,914.447998 802.468628,904.503784 809.842468,894.878052 
	C830.931946,867.348267 850.103394,838.563293 867.486084,808.570984 
	C873.296082,798.546265 874.660645,787.227051 876.889160,776.162659 
	C877.348755,773.880676 878.238220,771.504761 877.950134,769.300110 
	C877.615356,766.738098 876.849854,763.031128 875.098694,762.149109 
	C872.728699,760.955383 868.844971,761.102356 866.328857,762.249512 
	C862.454407,764.015930 860.322388,767.703064 859.992188,772.295166 
	C858.835083,788.384827 856.176086,790.910767 840.083313,788.688660 
	C828.351685,787.068726 819.851929,790.967407 812.758301,800.131470 
	C801.921021,814.131836 788.460754,824.460876 771.036499,829.505676 
	C758.867615,833.028809 751.640930,841.865479 748.886047,854.262939 
	C748.633179,855.400696 748.341248,856.531006 748.127258,857.675964 
	C745.801514,870.120361 740.004761,876.464478 727.328430,877.581970 
	C704.295654,879.612305 681.315613,879.012451 659.385620,870.428284 
	C653.739014,868.217957 648.055847,865.265930 643.454956,861.389893 
	C633.280334,852.818054 623.631165,843.598083 614.099060,834.302612 
	C611.145935,831.422852 608.269958,830.164673 604.352905,830.817932 
	C597.465332,831.966614 590.596985,833.273438 583.675781,834.167969 
	C570.039124,835.930542 558.874023,831.356873 550.062378,820.743042 
	C546.343445,816.263550 542.035583,812.271851 538.334045,807.779480 
	C532.423401,800.605896 532.641235,797.032349 538.452026,790.010559 
	C545.279968,781.759644 546.952332,772.047729 545.478394,761.799255 
	C543.798401,750.117798 541.371704,738.541931 539.772827,726.851379 
	C539.083130,721.808655 539.657288,716.593079 539.657288,710.905029 
	C528.065125,714.145630 522.658386,722.846375 518.790161,733.046082 
	C518.545044,732.964783 518.054993,732.879150 518.054565,732.791199 
	C517.888000,697.684692 523.437622,663.843628 540.712952,632.709351 
	C546.180908,622.854675 553.356445,614.341492 562.449707,607.559204 
	C563.890015,606.484924 565.416992,605.526611 567.403687,604.174438 
	C569.140747,609.678528 570.710693,614.653076 572.486877,620.281067 
	C577.451599,614.042480 583.679810,611.635071 591.117859,613.290771 
	C594.300171,602.166504 588.124817,593.287476 569.269836,581.378845 
	C591.507690,578.972412 598.843994,582.218140 600.409302,590.205750 
	C605.622498,587.153870 608.554382,583.288452 609.159302,576.883850 
	C612.012695,546.671387 610.629089,516.647705 605.930908,486.750519 
	C604.981750,480.710907 603.214966,474.730164 601.138000,468.970001 
	C600.241211,466.483032 597.647949,462.959381 595.734924,462.901611 
	C593.303772,462.828247 589.667175,465.234406 588.496277,467.553864 
	C584.165894,476.131775 580.869385,485.224731 576.738953,493.912415 
	C572.838318,502.116821 568.816284,510.326416 564.045593,518.037537 
	C558.732910,526.624756 550.420471,530.395874 540.260803,530.033325 
	C536.287964,529.891479 532.305908,530.010132 527.396912,530.010132 
	C529.109863,522.395386 530.435181,515.463074 532.303345,508.680176 
	C533.119080,505.718384 532.594604,503.713654 530.711548,501.475800 
	C526.133179,496.034790 521.759827,490.421265 516.991211,484.488098 
	C523.382568,482.603882 529.056885,480.931030 535.677612,478.979187 
	C527.428223,474.499268 519.755981,472.576141 511.358490,474.745789 
	C507.980896,475.618469 504.625336,476.576660 500.712982,477.343719 
	C500.046173,477.064545 499.926178,476.937592 499.806152,476.810638 
M586.954712,779.707397 
	C582.544678,763.985229 582.340332,747.857910 582.597839,731.726990 
	C582.649231,728.506165 583.625793,725.101074 584.967163,722.139282 
	C588.297607,714.785828 595.319824,713.610474 600.807617,719.417542 
	C605.263428,724.132568 609.264709,729.275940 613.694885,734.016846 
	C615.883118,736.358459 618.584412,738.220520 621.605896,740.764587 
	C622.675415,737.984253 623.363647,736.153564 624.081787,734.334717 
	C629.416626,720.823425 628.516052,706.561829 629.292542,692.471436 
	C630.083069,678.126892 618.868042,666.667725 604.819031,669.690979 
	C593.409058,672.146240 582.437256,676.811157 571.459290,680.990417 
	C568.342102,682.177063 565.621216,684.829651 563.166260,687.261841 
	C546.392578,703.879883 545.032288,733.829895 560.327393,754.279541 
	C564.203979,759.462463 565.687317,764.836121 564.921997,771.057434 
	C563.403259,783.403015 569.743286,791.658447 579.243347,798.104553 
	C582.877197,800.570312 585.945923,799.626587 586.715393,795.285889 
	C587.563477,790.501831 587.029175,785.472778 586.954712,779.707397 
M639.803711,750.518372 
	C641.068787,747.200745 642.333801,743.883118 643.664185,740.394104 
	C635.992737,740.257019 631.334351,743.810791 629.279297,752.003662 
	C625.631348,766.547607 627.344543,781.038391 630.918030,795.341858 
	C631.392151,797.239746 633.495422,798.730591 634.844299,800.409973 
	C636.052673,798.756592 636.440491,797.778076 636.121948,797.168518 
	C631.964783,789.212463 634.880066,781.759583 637.253967,774.081482 
	C638.446777,770.223267 638.431213,765.973450 638.809143,761.886658 
	C639.136475,758.346985 639.247925,754.787292 639.803711,750.518372 
M668.641785,815.265442 
	C669.732483,815.140137 670.823181,815.014893 672.058594,814.872986 
	C669.365906,804.214844 659.500610,806.025330 651.998779,803.331360 
	C653.449158,800.665039 654.947632,798.627319 655.677124,796.343994 
	C656.266785,794.498718 655.929810,792.357300 656.003906,790.347290 
	C654.031311,790.771606 651.785767,790.733032 650.136414,791.705566 
	C644.801880,794.851013 641.851318,799.582703 641.553101,805.950867 
	C641.273865,811.913574 643.461609,814.783752 649.359680,815.030273 
	C655.492065,815.286438 661.637695,815.225159 668.641785,815.265442 
M621.221924,598.108643 
	C611.223083,594.531189 601.456482,601.634583 602.590637,612.064514 
	C611.147461,612.241638 619.718872,612.876953 626.984924,620.728455 
	C626.984924,615.564941 627.083618,611.828003 626.958069,608.098572 
	C626.824158,604.118713 625.622803,600.599182 621.221924,598.108643 
z"/>
<path fill="#0D446C" opacity="1.000000" stroke="none" 
	d="
M293.894745,860.858643 
	C296.027435,852.680786 301.209534,846.512451 307.185669,840.917175 
	C319.873840,829.037476 336.029663,824.875488 352.252899,821.047913 
	C368.573486,817.197327 385.107361,814.184570 401.298096,809.868164 
	C418.133087,805.380127 431.576477,795.896851 440.310822,780.219177 
	C446.048584,769.920166 454.918549,763.116394 466.339874,759.807129 
	C467.455078,759.484009 468.543854,759.065674 469.635712,758.666443 
	C479.357727,755.111389 480.853271,751.578186 478.084106,741.462646 
	C476.969818,737.392212 476.956635,732.948975 476.966858,728.676697 
	C476.971039,726.930908 478.365387,725.188477 479.127289,723.444519 
	C480.968506,724.308472 483.190948,724.772827 484.586395,726.104065 
	C491.412781,732.616028 492.351562,740.888062 490.785217,749.641113 
	C489.442230,757.146179 470.986633,792.033875 465.515747,797.284180 
	C452.235809,810.028687 435.892914,817.372009 418.702667,822.942444 
	C405.661713,827.168396 392.215485,828.954102 378.436401,829.178589 
	C346.797974,829.693970 318.115936,838.492126 294.309753,860.908447 
	C293.947662,860.932556 293.894745,860.858643 293.894745,860.858643 
z"/>
<path fill="#0D446B" opacity="1.000000" stroke="none" 
	d="
M465.181396,442.923035 
	C466.407806,449.372589 467.675842,455.375092 468.849457,461.395996 
	C471.127747,473.083923 467.735962,484.036255 465.011688,495.240570 
	C461.655426,509.044250 452.662598,517.145142 440.356384,522.940918 
	C439.168427,522.007263 437.826935,521.034058 436.575256,519.956482 
	C426.058167,510.902283 425.556824,508.889526 430.439636,496.044586 
	C431.383118,493.562592 432.216614,491.039032 433.131256,488.545837 
	C436.472443,479.438416 434.521729,471.634705 427.591125,464.877777 
	C421.926422,459.355011 417.991425,452.772308 415.731873,444.131470 
	C419.084534,445.214081 421.637848,446.503784 424.289154,446.753540 
	C426.581848,446.969513 429.400879,446.581207 431.162567,445.313751 
	C432.021545,444.695740 431.405701,441.325195 430.760925,439.438690 
	C427.592163,430.167725 431.253510,415.353668 438.192963,409.516846 
	C439.278259,413.866577 440.400909,418.365967 441.711182,423.617401 
	C448.729248,415.627197 454.903992,408.438263 461.276123,401.428802 
	C463.498627,398.983948 466.082275,396.809448 468.753998,394.857788 
	C469.917603,394.007782 472.221588,393.272552 473.098297,393.854706 
	C474.115784,394.530365 474.735443,396.817322 474.484955,398.218445 
	C473.288940,404.908783 471.730713,411.534027 470.317261,418.185822 
	C468.596588,426.283539 466.891937,434.384644 465.181396,442.923035 
M445.770996,460.054810 
	C445.770996,460.054810 445.797302,459.971588 445.797302,459.971588 
	C445.797302,459.971588 445.814941,460.187683 446.217865,460.718079 
	C455.232208,466.284882 455.898376,475.780792 456.780579,485.372040 
	C464.251678,479.959290 466.269379,472.057983 461.641357,466.944458 
	C457.519470,462.390106 452.103882,460.053741 445.770996,460.054810 
z"/>
<path fill="#0E446C" opacity="1.000000" stroke="none" 
	d="
M403.967560,169.009323 
	C414.339996,183.055145 424.520569,196.800079 435.036102,210.997299 
	C431.351349,212.925003 428.018158,214.668777 424.231964,216.649551 
	C415.612030,204.948746 407.084137,193.372879 398.556244,181.797012 
	C398.218201,181.906555 397.880157,182.016098 397.542114,182.125656 
	C398.516754,191.058563 399.492981,199.991302 400.465302,208.924484 
	C401.041718,214.220428 401.823212,219.508118 402.047974,224.819183 
	C402.110352,226.292679 400.851837,228.433990 399.570404,229.162216 
	C398.512054,229.763657 396.073486,229.254395 395.021484,228.342865 
	C385.579712,220.162186 376.325745,211.765045 366.969055,203.485245 
	C365.727539,202.386597 364.219727,201.588882 361.739441,199.910126 
	C366.739624,214.698624 371.263367,228.077942 375.862640,241.680740 
	C372.219727,243.582748 368.877106,245.327988 365.112671,247.293457 
	C358.031708,226.083725 351.051270,205.175049 343.901947,183.760529 
	C347.738373,181.762283 351.496216,179.804962 355.374146,177.785110 
	C366.493286,187.802399 377.455383,197.678192 389.170258,208.232178 
	C387.618530,194.772095 386.663513,182.321945 384.560486,170.068848 
	C383.564453,164.265640 384.992065,161.351776 390.266449,159.655121 
	C391.816193,159.156647 393.220032,158.204666 395.146637,157.229843 
	C398.046600,161.087479 400.911133,164.897949 403.967560,169.009323 
z"/>
<path fill="#0E456C" opacity="1.000000" stroke="none" 
	d="
M137.500275,498.582672 
	C143.787064,496.106079 149.727249,493.803558 155.667419,491.501038 
	C155.652756,491.138672 155.638092,490.776276 155.623428,490.413910 
	C141.583191,486.816559 127.542961,483.219208 112.948677,479.479919 
	C113.978371,475.400818 114.966957,471.484589 116.047394,467.204498 
	C137.482910,472.647736 158.512482,477.987885 180.062866,483.460297 
	C179.156982,487.126892 178.590149,490.718079 177.296738,494.025116 
	C176.771194,495.368835 174.802109,496.446411 173.257294,497.046967 
	C157.330124,503.238861 141.355347,509.308228 124.645676,515.697815 
	C139.734283,519.554810 154.216904,523.256897 169.059128,527.050903 
	C168.021118,531.147583 167.058014,534.948608 165.951431,539.315918 
	C144.530548,533.879578 123.368896,528.509033 102.232437,523.144897 
	C102.232437,522.244263 102.210518,521.765930 102.235695,521.290161 
	C102.661766,513.239502 107.228905,509.308624 114.777733,507.159363 
	C122.414749,504.985016 129.709167,501.607330 137.500275,498.582672 
z"/>
<path fill="#0E456C" opacity="1.000000" stroke="none" 
	d="
M491.020996,125.762772 
	C511.224792,126.644165 524.745483,139.042953 526.531616,157.892258 
	C528.127625,174.735550 516.379822,190.228317 498.914398,194.313171 
	C480.271790,198.673340 460.811005,185.188965 457.865692,165.870483 
	C454.730804,145.309006 468.572632,127.263664 488.552582,125.867126 
	C489.217163,125.820679 489.883362,125.798103 491.020996,125.762772 
M509.756744,172.092957 
	C510.453674,170.770386 511.341278,169.512604 511.816284,168.114609 
	C514.685059,159.671585 513.270142,151.907501 507.221863,145.388046 
	C501.057739,138.743744 493.229034,137.301422 484.781464,139.991730 
	C476.325348,142.684753 471.761871,148.821457 470.697571,157.568069 
	C469.509064,167.335846 474.623047,176.192841 483.640137,180.106583 
	C492.904327,184.127563 501.969208,181.501587 509.756744,172.092957 
z"/>
<path fill="#0F456C" opacity="1.000000" stroke="none" 
	d="
M1049.314819,621.986267 
	C1048.144165,617.833069 1047.431274,613.695190 1046.600830,608.874146 
	C1056.064697,608.103027 1064.905396,607.382690 1074.254395,606.620911 
	C1073.660645,598.119507 1073.085815,589.889343 1072.477905,581.184509 
	C1063.280884,581.832397 1054.412720,582.457092 1045.262573,583.101685 
	C1044.874023,578.615479 1044.520874,574.539246 1044.107300,569.764587 
	C1066.137207,568.112183 1087.924927,566.477966 1110.018555,564.820801 
	C1110.414673,569.209473 1110.769775,573.143982 1111.170532,577.584045 
	C1102.010742,578.316589 1093.157471,579.024658 1083.827393,579.770874 
	C1084.488159,588.559692 1085.119385,596.954834 1085.783691,605.790161 
	C1095.012085,605.139709 1103.863647,604.515747 1112.924805,603.877014 
	C1113.331787,608.432495 1113.697388,612.525818 1114.118042,617.234741 
	C1092.445435,618.840271 1071.109131,620.420898 1049.314819,621.986267 
z"/>
<path fill="#0E456C" opacity="1.000000" stroke="none" 
	d="
M878.342163,194.864990 
	C878.147095,196.512604 877.906311,198.118683 877.101746,199.359055 
	C873.041443,205.618896 868.834290,211.783524 864.397583,218.400543 
	C871.595825,223.264923 878.561157,227.971909 886.051880,233.033966 
	C891.105530,225.559464 896.091125,218.185516 901.366272,210.383347 
	C905.110901,212.897125 908.614197,215.248901 912.516052,217.868271 
	C900.206543,236.170349 888.086304,254.190964 875.636230,272.702026 
	C871.922119,270.256012 868.404297,267.939301 864.460510,265.342010 
	C869.532288,257.707977 874.459229,250.292038 879.606384,242.544586 
	C872.511597,237.758789 865.664001,233.139694 858.442200,228.268204 
	C853.312012,235.864136 848.332458,243.237000 843.148743,250.912048 
	C839.280884,248.312256 835.751404,245.939941 831.998657,243.417542 
	C844.319458,225.101074 856.460754,207.051590 868.935425,188.506424 
	C872.086609,190.635254 875.061646,192.645065 878.342163,194.864990 
z"/>
<path fill="#0E456C" opacity="1.000000" stroke="none" 
	d="
M314.928223,250.912323 
	C313.743225,251.853592 312.854340,252.593246 311.700623,253.553238 
	C317.136902,260.793518 322.500549,267.937073 328.031830,275.303894 
	C324.383759,278.063141 320.990875,280.629333 317.321045,283.405029 
	C304.004822,265.757660 290.899139,248.389343 277.473511,230.597031 
	C280.917236,227.970047 284.163910,225.493378 287.681702,222.809891 
	C293.196411,230.067490 298.605103,237.185547 304.242676,244.604828 
	C311.248260,239.310745 317.967865,234.232773 325.082001,228.856674 
	C319.592133,221.542908 314.267578,214.449356 308.675354,206.999237 
	C312.287598,204.261230 315.690063,201.682220 319.379272,198.885880 
	C332.647064,216.466141 345.749725,233.827576 359.246307,251.711014 
	C355.695129,254.399948 352.226807,257.026154 348.547852,259.811829 
	C342.966431,252.467316 337.650970,245.472794 332.014130,238.055405 
	C326.271667,242.383789 320.747986,246.547256 314.928223,250.912323 
z"/>
<path fill="#0E456C" opacity="1.000000" stroke="none" 
	d="
M646.683838,176.417465 
	C647.240295,178.028809 647.630188,179.269852 647.939697,180.254852 
	C626.451111,180.254852 605.119080,180.254852 582.943237,180.254852 
	C586.174805,172.394470 589.000916,165.519119 591.827881,158.644135 
	C597.443726,144.986694 603.149475,131.364975 608.601990,117.642632 
	C609.710266,114.853401 611.086853,113.648170 614.048462,114.110779 
	C615.513794,114.339668 617.065125,114.391357 618.529114,114.182938 
	C622.210938,113.658752 623.711426,115.489540 624.919617,118.756226 
	C631.999084,137.897507 639.294556,156.958862 646.683838,176.417465 
M626.491760,160.010162 
	C623.222412,151.263382 619.953064,142.516602 616.314758,132.782700 
	C611.245422,145.604660 606.550720,157.479126 601.643616,169.890701 
	C611.621582,169.890701 620.669189,169.890701 630.086609,169.890701 
	C628.912842,166.600204 627.864563,163.661499 626.491760,160.010162 
z"/>
<path fill="#0F456C" opacity="1.000000" stroke="none" 
	d="
M93.259430,658.878052 
	C92.652573,645.608643 92.070053,632.819519 91.457535,619.371887 
	C113.309692,618.263306 134.987610,617.163513 157.490997,616.021851 
	C157.684586,620.049622 157.869019,623.886902 158.067551,628.017578 
	C139.531143,628.976196 121.479446,629.909729 103.037842,630.863403 
	C103.490685,639.875610 103.920982,648.439148 104.381256,657.599243 
	C122.714157,656.715942 140.752655,655.846802 159.351257,654.950623 
	C159.588898,659.246399 159.812408,663.286926 160.056061,667.691711 
	C137.851425,668.802979 116.152374,669.888916 94.151894,670.989929 
	C93.846024,666.891846 93.564896,663.125122 93.259430,658.878052 
z"/>
<path fill="#0E456C" opacity="1.000000" stroke="none" 
	d="
M191.838501,406.197998 
	C198.093979,409.695618 204.025070,413.020233 210.179276,416.469910 
	C208.132095,420.170868 206.221817,423.624359 204.012787,427.617981 
	C184.786224,416.925812 165.823883,406.380585 146.203033,395.469177 
	C154.562759,380.407410 162.814835,365.539551 171.295410,350.260040 
	C190.626602,361.012482 209.610458,371.571716 229.116531,382.421448 
	C227.178680,385.924896 225.318054,389.288727 223.297791,392.941193 
	C207.122345,383.955017 191.322983,375.177765 175.152145,366.194153 
	C170.762192,374.078949 166.497406,381.738922 162.097000,389.642548 
	C172.059280,395.190552 181.786713,400.607758 191.838501,406.197998 
z"/>
<path fill="#0D446C" opacity="1.000000" stroke="none" 
	d="
M115.753441,560.885986 
	C131.320801,556.517700 146.489868,552.230957 161.665390,547.967163 
	C162.120361,547.839294 162.642639,547.950989 163.546631,547.950989 
	C163.280792,551.629883 163.376755,555.294800 162.589478,558.758972 
	C162.271072,560.160034 160.143494,561.926819 158.634750,562.151062 
	C150.472488,563.363647 146.833511,567.632019 147.257950,576.028381 
	C147.498413,580.785339 146.490265,585.605469 146.009842,590.769470 
	C148.174103,591.866882 150.357559,592.969055 152.536362,594.080322 
	C154.606735,595.136292 156.672302,596.201782 158.955841,597.373962 
	C158.550079,601.645264 158.143478,605.925476 157.698288,610.611816 
	C156.176086,610.006958 154.806961,609.575317 153.538528,608.941956 
	C134.973480,599.673035 116.457443,590.304565 97.830009,581.163086 
	C94.927025,579.738464 93.815186,578.216248 94.657013,575.078003 
	C95.080185,573.500488 94.546356,571.598877 95.173134,570.161072 
	C95.895523,568.503967 97.142464,566.414734 98.648010,565.878296 
	C104.107162,563.933228 109.770065,562.559937 115.753441,560.885986 
M116.051674,573.355225 
	C114.852371,573.718506 113.653076,574.081848 111.273300,574.802734 
	C119.944679,578.824341 127.645363,582.395691 135.717514,586.139404 
	C136.255142,579.767334 136.736374,574.063660 137.248322,567.995850 
	C129.980591,569.826355 123.390915,571.486023 116.051674,573.355225 
z"/>
<path fill="#0E456C" opacity="1.000000" stroke="none" 
	d="
M967.270020,342.402588 
	C983.482483,338.392242 999.339050,334.647705 1015.101868,330.542633 
	C1018.491638,329.659790 1020.545837,330.189911 1021.905396,333.260498 
	C1023.333252,336.485168 1028.033203,338.343353 1024.456299,343.496521 
	C1011.935730,361.534698 999.909973,379.916351 987.071289,399.101349 
	C984.358826,394.876587 979.994385,391.079620 980.043579,387.340668 
	C980.096375,383.325684 984.295593,379.365265 986.851257,375.104523 
	C982.539368,368.889526 978.282654,362.544250 973.734375,356.415344 
	C973.018921,355.451202 970.894470,354.921600 969.574036,355.135040 
	C965.977478,355.716309 962.462646,356.803131 958.370789,357.825714 
	C955.943420,354.358368 953.420532,350.754578 950.519775,346.611023 
	C956.381165,345.152344 961.630859,343.845856 967.270020,342.402588 
M1007.039917,344.738129 
	C999.317932,346.842468 991.595886,348.946838 983.351746,351.193512 
	C987.045654,356.452118 990.287537,361.067139 994.031250,366.396606 
	C999.057617,358.760895 1003.564392,351.914581 1008.530334,345.002502 
	C1008.489868,344.759888 1008.449402,344.517242 1008.408875,344.274628 
	C1008.217712,344.463806 1008.026550,344.653015 1007.039917,344.738129 
z"/>
<path fill="#0E456C" opacity="1.000000" stroke="none" 
	d="
M800.727417,168.685608 
	C802.765930,164.483551 804.634827,160.616440 806.723450,156.294739 
	C810.770874,158.228867 814.589539,160.053696 818.802429,162.066879 
	C815.000732,169.999756 811.370911,177.574051 807.189392,186.299454 
	C811.983459,184.185760 815.793701,182.522263 819.589722,180.826965 
	C822.623535,179.472092 825.639099,178.076401 828.664368,176.702301 
	C840.388367,171.377121 840.388611,171.377655 852.031738,178.600525 
	C839.257141,184.218903 826.770752,189.710541 813.814697,195.408752 
	C817.337219,209.399292 820.844543,223.329300 824.631348,238.369415 
	C819.637329,235.981979 815.437134,234.257126 811.572998,231.965591 
	C810.306335,231.214417 809.570923,229.074203 809.174805,227.429031 
	C806.767639,217.431900 804.528564,207.394287 801.941589,196.095581 
	C797.509094,205.133698 793.626953,213.049500 789.573303,221.315216 
	C785.632385,219.445160 781.942261,217.694122 777.896545,215.774307 
	C785.534241,200.016495 793.046021,184.518524 800.727417,168.685608 
z"/>
<path fill="#0F456C" opacity="1.000000" stroke="none" 
	d="
M1060.530029,517.471436 
	C1052.259155,519.175171 1043.988281,520.878967 1035.356323,522.657104 
	C1034.418823,518.585938 1033.533325,514.741028 1032.476807,510.153320 
	C1053.984497,505.454468 1075.292114,500.799316 1097.012329,496.054047 
	C1097.999634,500.347565 1098.919067,504.345886 1100.006104,509.072693 
	C1091.633545,510.967224 1083.333496,512.845398 1073.631836,515.040649 
	C1081.600464,519.166199 1088.125488,523.460754 1095.272339,526.016052 
	C1104.527100,529.325012 1107.156006,535.946960 1107.255127,545.375671 
	C1095.004150,538.824280 1082.972656,532.390259 1070.652466,525.801880 
	C1061.765137,537.317139 1052.977295,548.703247 1043.575317,560.885193 
	C1042.399658,555.615845 1041.211670,551.372498 1040.620850,547.047546 
	C1040.417969,545.562134 1041.367310,543.606873 1042.371826,542.320312 
	C1048.515503,534.451294 1054.826294,526.712708 1061.428711,518.469360 
	C1061.360718,517.829102 1060.945435,517.650269 1060.530029,517.471436 
z"/>
<path fill="#0F456C" opacity="1.000000" stroke="none" 
	d="
M196.054779,445.163879 
	C192.529099,453.990387 189.115982,462.446472 185.470001,471.479431 
	C164.999298,463.258789 144.738235,455.122345 124.086433,446.828979 
	C128.452805,435.948517 132.690460,425.388824 137.116272,414.360229 
	C140.576172,415.696014 143.735580,416.915771 147.359726,418.314972 
	C144.666687,425.172424 142.081070,431.756348 139.361160,438.682251 
	C144.133469,440.622650 148.714157,442.485107 153.671982,444.500946 
	C156.397751,437.863525 159.023941,431.468567 161.804611,424.697449 
	C165.268280,426.075348 168.456177,427.343536 172.116058,428.799500 
	C169.535248,435.406525 167.027817,441.825653 164.389618,448.579590 
	C169.540314,450.640167 174.420563,452.592529 179.531479,454.637207 
	C182.245926,447.986145 184.808411,441.707428 187.536423,435.023163 
	C191.186523,436.500732 194.639465,437.898499 198.333328,439.393799 
	C197.512604,441.439819 196.839966,443.116608 196.054779,445.163879 
z"/>
<path fill="#0F456C" opacity="1.000000" stroke="none" 
	d="
M1107.939453,638.060791 
	C1109.715332,637.163025 1111.161377,636.408203 1113.455688,635.210632 
	C1112.635498,649.875916 1111.852783,663.870300 1111.040894,678.387634 
	C1107.725830,678.241760 1104.640137,678.105957 1100.907471,677.941711 
	C1101.265747,671.131775 1101.620239,664.395203 1102.019165,656.813599 
	C1095.132935,660.268860 1088.657837,663.374573 1082.332397,666.760071 
	C1079.682861,668.178162 1077.697266,668.248840 1075.152710,666.360291 
	C1069.440918,662.120667 1063.452271,658.253906 1056.766846,653.681885 
	C1056.292114,661.228271 1055.862427,668.056702 1055.399780,675.409119 
	C1051.845093,675.237061 1048.627197,675.081299 1044.953491,674.903442 
	C1045.773071,660.556885 1046.575073,646.515564 1047.437622,631.417725 
	C1049.982666,633.157532 1051.953369,634.491516 1053.910645,635.844727 
	C1061.294800,640.949829 1068.769409,645.931946 1076.004883,651.239868 
	C1078.565430,653.118286 1080.467285,653.050720 1083.113525,651.547424 
	C1091.196899,646.955322 1099.432861,642.631836 1107.939453,638.060791 
z"/>
<path fill="#0F456C" opacity="1.000000" stroke="none" 
	d="
M939.912842,255.073441 
	C938.657532,253.979919 937.676453,253.115387 936.091064,251.718338 
	C934.640747,258.723297 933.157837,265.100006 932.046082,271.540771 
	C931.345703,275.598389 930.098816,278.262024 925.400208,279.263824 
	C918.939880,280.641266 912.713745,283.116852 905.686646,285.344025 
	C911.150513,290.248657 916.273926,294.847656 921.907532,299.904663 
	C919.756042,302.388428 917.646240,304.824127 915.086670,307.779083 
	C904.285461,298.250641 893.652344,288.870544 882.387634,278.933289 
	C893.364258,275.509460 903.547913,272.118439 913.870361,269.221893 
	C917.837097,268.108795 919.871094,266.639465 920.463562,262.144379 
	C921.872375,251.456192 924.064392,240.871216 926.115540,229.249451 
	C937.226257,239.059631 947.805115,248.400177 958.691284,258.012115 
	C956.355591,260.673065 954.320557,262.991486 951.977539,265.660736 
	C947.860352,262.043640 944.023804,258.673035 939.912842,255.073441 
z"/>
<path fill="#0F456C" opacity="1.000000" stroke="none" 
	d="
M261.685791,323.671509 
	C264.377563,320.468872 266.834930,317.539307 269.622833,314.215698 
	C272.265411,316.341003 274.790863,318.372162 277.789948,320.784180 
	C268.487732,331.895233 259.370697,342.785034 249.747147,354.279907 
	C245.947586,342.969910 242.358765,332.514771 238.950516,322.001129 
	C237.947891,318.908264 236.749115,317.158478 232.952576,316.735260 
	C221.886368,315.501648 210.897003,313.578949 198.998581,311.794617 
	C208.452362,300.494263 217.535110,289.637451 226.881607,278.465332 
	C229.561279,280.695160 231.938324,282.673157 234.696503,284.968353 
	C230.281021,290.308899 226.084763,295.384247 221.249863,301.232086 
	C228.689606,302.575653 235.396637,304.005646 242.173096,304.922119 
	C245.777298,305.409576 247.660553,306.835724 248.701630,310.405518 
	C250.633530,317.029816 253.088409,323.501556 255.594833,330.823547 
	C257.861206,328.161530 259.656311,326.053040 261.685791,323.671509 
z"/>
<path fill="#60ADDF" opacity="1.000000" stroke="none" 
	d="
M727.819336,1069.734863 
	C726.459595,1086.251953 725.125793,1102.300537 723.803162,1118.214966 
	C716.257385,1120.668823 716.216248,1120.687866 713.177795,1114.123413 
	C707.600159,1102.072998 702.076233,1089.997803 696.067932,1076.927979 
	C695.358215,1086.461914 694.690979,1095.050659 694.088867,1103.643921 
	C693.670288,1109.617920 693.140259,1115.595337 693.058472,1121.576782 
	C693.018433,1124.503418 691.492065,1125.252563 689.213501,1125.712280 
	C686.862061,1126.186646 684.826172,1126.577759 683.439819,1123.622192 
	C675.535156,1106.770996 667.464050,1089.997681 659.446899,1073.192505 
	C666.533081,1070.066162 666.733887,1070.120972 669.754211,1076.794189 
	C675.509644,1089.510498 681.235962,1102.240112 687.414185,1115.939209 
	C687.942810,1106.632935 688.417358,1098.344116 688.883362,1090.054688 
	C689.256958,1083.410400 689.856628,1076.766724 689.888184,1070.120483 
	C689.903931,1066.792480 691.463623,1066.057861 694.184692,1065.374878 
	C697.046265,1064.656494 698.408081,1065.479004 699.567749,1068.077271 
	C704.923218,1080.076416 710.437988,1092.004639 715.894592,1103.958618 
	C716.430603,1105.132935 716.959167,1106.310669 718.105347,1108.844604 
	C718.450867,1104.606689 718.739807,1101.847290 718.890259,1099.080444 
	C719.513367,1087.618286 720.308472,1076.159180 720.596558,1064.687866 
	C720.730713,1059.345215 723.597473,1058.910767 727.845337,1059.229492 
	C727.845337,1062.698242 727.845337,1065.982422 727.819336,1069.734863 
z"/>
<path fill="#0F456C" opacity="1.000000" stroke="none" 
	d="
M685.825073,167.908966 
	C684.736877,174.388275 683.717773,180.436142 682.584229,187.163437 
	C678.532898,186.613892 674.530640,186.071030 669.870300,185.438873 
	C671.048401,177.817123 671.789673,170.432892 673.420349,163.250595 
	C674.848816,156.958969 674.243896,151.419159 671.433533,145.570084 
	C667.064453,136.477249 663.450500,127.021576 659.056152,116.631332 
	C664.354614,117.478920 668.826233,118.001160 673.176697,119.033890 
	C674.190247,119.274490 675.030701,121.155579 675.542725,122.444031 
	C678.210815,129.157242 680.747131,135.922806 683.592773,143.358902 
	C688.258057,137.804565 692.822754,132.970505 696.653076,127.611572 
	C699.496460,123.633575 702.511658,122.331734 707.102112,123.883286 
	C709.247620,124.608467 711.603882,124.709915 714.542114,125.209167 
	C707.373169,133.568695 700.948975,141.845886 693.667542,149.283844 
	C688.510010,154.552185 686.346252,160.500656 685.825073,167.908966 
z"/>
<path fill="#61ADDF" opacity="1.000000" stroke="none" 
	d="
M194.840851,836.828064 
	C181.817398,844.096680 168.793930,851.365356 155.379593,858.852112 
	C154.049484,856.517517 153.020645,854.711731 151.808075,852.583435 
	C168.732193,843.193359 185.283051,834.010437 202.010483,824.729492 
	C205.775665,828.644043 206.701340,832.075500 203.729568,837.103271 
	C195.890396,850.365723 188.691086,864.006348 180.765442,878.349792 
	C194.103882,870.854187 206.733841,863.756714 219.882996,856.367493 
	C221.130539,858.426575 222.193268,860.180664 223.643356,862.573975 
	C206.663391,871.999512 190.035965,881.229309 173.508774,890.403503 
	C169.709473,886.759888 168.935257,883.778625 171.690170,879.219421 
	C179.860580,865.697693 187.407547,851.799255 195.465668,837.550171 
	C195.669037,836.790039 195.605011,836.527893 195.540985,836.265686 
	C195.307587,836.453125 195.074219,836.640564 194.840851,836.828064 
z"/>
<path fill="#0E456C" opacity="1.000000" stroke="none" 
	d="
M505.366028,748.287476 
	C508.529480,742.928528 515.156616,740.493896 520.556213,742.482300 
	C523.317261,743.499023 525.840210,749.080261 524.662781,752.888306 
	C523.699768,756.002869 522.282837,759.153198 520.356201,761.762817 
	C512.520264,772.376648 509.053955,783.527893 515.674866,796.915222 
	C507.131653,796.342163 499.239288,796.883362 491.920776,793.299438 
	C485.754730,790.279907 484.374542,785.898376 487.735107,779.781372 
	C493.469147,769.343994 499.341644,758.982605 505.366028,748.287476 
z"/>
<path fill="#0F456C" opacity="1.000000" stroke="none" 
	d="
M721.020996,186.941086 
	C725.184570,172.043259 729.274780,157.547729 733.457031,142.725891 
	C729.064209,141.416962 725.142029,140.248260 720.728699,138.933228 
	C721.695129,135.452744 722.603882,132.179703 723.679138,128.307114 
	C736.377136,131.855621 748.775085,135.320282 761.661987,138.921585 
	C760.707886,142.489243 759.828003,145.779175 758.814026,149.570755 
	C754.562683,148.477692 750.486206,147.429581 745.991150,146.273849 
	C741.032654,163.832214 736.125488,181.208969 731.085327,199.056549 
	C726.987488,197.918106 723.083374,196.833466 718.688782,195.612564 
	C719.490112,192.678986 720.218872,190.011185 721.020996,186.941086 
z"/>
<path fill="#0F456C" opacity="1.000000" stroke="none" 
	d="
M1015.589722,460.292114 
	C1014.256470,457.082458 1013.096680,454.197205 1011.790283,450.947266 
	C1028.741333,443.927094 1045.398926,437.028412 1062.483276,429.953003 
	C1060.844727,425.850372 1059.332520,422.064056 1057.569458,417.649719 
	C1060.832275,416.269653 1063.944336,414.953339 1067.751099,413.343231 
	C1072.798462,425.513702 1077.769897,437.500793 1082.886963,449.839264 
	C1079.453735,451.308624 1076.298706,452.658875 1072.701782,454.198273 
	C1070.932617,450.102966 1069.252319,446.213440 1067.443237,442.025909 
	C1051.665649,448.525513 1036.038574,454.988922 1020.379395,461.373322 
	C1018.833191,462.003754 1016.745789,464.161285 1015.589722,460.292114 
z"/>
<path fill="#0E456C" opacity="1.000000" stroke="none" 
	d="
M1060.232178,397.702301 
	C1061.540405,400.201660 1062.679932,402.371521 1063.971680,404.831451 
	C1060.710938,406.577911 1057.653564,408.215485 1054.252563,410.037109 
	C1052.168823,406.227142 1050.123413,402.487396 1047.905151,398.431366 
	C1031.584351,407.073364 1015.625671,415.523712 999.367493,424.132568 
	C997.350098,420.288452 995.445190,416.658691 993.354797,412.675537 
	C1009.643738,404.006653 1025.586548,395.521942 1041.780762,386.903473 
	C1039.727173,382.929199 1037.843628,379.283966 1035.724365,375.182495 
	C1038.904541,373.440887 1042.047485,371.719666 1045.473145,369.843597 
	C1050.429199,379.194855 1055.246338,388.283844 1060.232178,397.702301 
z"/>
<path fill="#0E456C" opacity="1.000000" stroke="none" 
	d="
M265.370453,256.347809 
	C261.958801,258.647736 263.850128,260.195129 265.550049,261.950684 
	C277.020721,273.796753 288.446167,285.686554 299.879028,297.569183 
	C300.105438,297.804474 300.244171,298.124146 300.527954,298.566895 
	C297.677368,301.470032 294.802643,304.397766 291.620605,307.638458 
	C278.778137,294.335327 266.200623,281.306671 253.432175,268.080231 
	C250.212601,271.082397 247.076111,274.007111 244.100540,276.781738 
	C241.355621,274.309387 238.790192,271.998688 236.985855,270.373505 
	C245.869659,260.605164 254.594025,251.012146 263.149078,241.605301 
	C266.570679,244.834808 269.151825,247.271072 272.096161,250.050125 
	C269.973114,252.035767 267.797089,254.070953 265.370453,256.347809 
z"/>
<path fill="#60ADDF" opacity="1.000000" stroke="none" 
	d="
M546.209839,1072.968262 
	C568.697388,1065.683838 586.265564,1082.341675 581.627686,1106.092773 
	C579.447083,1117.259766 574.219788,1126.189087 562.709045,1129.728638 
	C548.187500,1134.194214 534.059204,1126.145508 530.032776,1111.477661 
	C525.839722,1096.202881 532.522827,1079.977295 546.209839,1072.968262 
M570.532898,1085.169434 
	C563.633362,1074.693359 550.666077,1075.198608 543.952820,1082.706421 
	C536.623596,1090.903198 534.906921,1105.821411 540.153015,1115.557861 
	C546.139465,1126.668335 561.138611,1127.859741 568.362366,1117.492798 
	C575.269714,1107.580078 576.114197,1096.861450 570.532898,1085.169434 
z"/>
<path fill="#60ADDF" opacity="1.000000" stroke="none" 
	d="
M314.014252,1026.048828 
	C312.382935,1029.867188 310.891327,1033.329346 309.389374,1036.815430 
	C302.915558,1033.145874 302.783295,1032.850952 305.384430,1026.740845 
	C306.361511,1024.445679 307.493652,1022.216797 308.538849,1019.950256 
	C313.021851,1010.228882 311.806000,1006.698608 300.984711,999.478760 
	C296.057159,1005.715088 291.072845,1012.023315 285.780548,1018.721252 
	C283.680634,1017.190979 281.878357,1015.877686 279.677155,1014.273682 
	C288.486786,1002.990417 297.066010,992.000671 305.647522,981.012695 
	C307.389801,978.781921 309.159851,976.572571 310.883667,974.327698 
	C315.122681,968.807617 315.175995,968.713989 321.050323,972.809204 
	C324.454651,975.182495 327.837585,977.664795 330.856903,980.496094 
	C337.556976,986.778809 339.156952,993.227783 336.032043,999.654419 
	C332.696655,1006.513794 326.846466,1009.263916 317.067688,1008.191528 
	C319.358704,1014.651306 317.000000,1020.221802 314.014252,1026.048828 
M326.715881,984.911926 
	C323.841095,982.554443 320.966339,980.197021 317.927490,977.705017 
	C313.248627,983.690369 309.095795,989.002808 304.697754,994.628845 
	C307.689667,996.890808 310.176910,999.100403 312.969727,1000.811096 
	C318.062683,1003.930664 323.438141,1003.245422 327.008270,999.368591 
	C330.898651,995.143921 330.953766,990.980774 326.715881,984.911926 
z"/>
<path fill="#60ADDF" opacity="1.000000" stroke="none" 
	d="
M179.679871,770.354248 
	C183.063568,776.712830 183.059219,776.701843 176.658051,779.225220 
	C167.682892,782.763367 158.645859,786.158447 149.781021,789.955017 
	C146.641922,791.299438 143.554474,793.253052 141.109619,795.617371 
	C137.275665,799.325195 136.792145,804.098755 138.859695,809.004578 
	C140.994797,814.070740 144.752045,817.325256 150.372818,816.901550 
	C154.440002,816.594849 158.564789,815.552185 162.414398,814.151855 
	C172.394211,810.521606 182.236206,806.512512 192.568222,802.485168 
	C193.569016,804.940430 194.416046,807.018555 195.682098,810.124634 
	C181.783737,814.919067 168.509338,820.228760 154.807953,823.978088 
	C145.027893,826.654419 136.762741,820.934875 132.894806,811.076599 
	C128.812241,800.671387 130.687164,791.877686 139.889145,786.745911 
	C148.979828,781.676208 158.956726,778.182251 168.593246,774.111633 
	C172.106781,772.627502 175.759750,771.473511 179.679871,770.354248 
z"/>
<path fill="#61ADDF" opacity="1.000000" stroke="none" 
	d="
M917.472534,1008.448608 
	C918.565308,1011.112732 919.191345,1013.608704 920.463806,1015.713928 
	C923.409363,1020.587158 921.291504,1023.351257 916.449463,1025.739990 
	C912.166809,1015.095642 907.912109,1004.532043 903.666565,993.964783 
	C900.753601,986.714172 898.037598,979.376465 894.861267,972.243408 
	C893.493591,969.171997 895.155701,967.747253 897.088684,966.607727 
	C898.817200,965.588745 901.631775,964.189697 902.867371,964.892334 
	C919.626892,974.423279 936.194397,984.291870 952.846191,994.098755 
	C948.099915,1000.205566 947.994080,1000.227661 941.957336,996.612732 
	C930.635132,989.832581 930.670044,989.872375 920.481873,998.852356 
	C917.584290,1001.406372 914.083252,1003.539429 917.472534,1008.448608 
M902.851562,972.685059 
	C902.736450,972.650146 902.621338,972.615173 902.506165,972.580261 
	C902.685547,972.704834 902.864868,972.829468 902.817627,973.699097 
	C905.994507,981.476562 909.171326,989.254028 912.617554,997.690857 
	C917.146912,993.800659 921.113708,990.393616 925.623230,986.520508 
	C917.715149,981.807556 910.348267,977.417175 902.851562,972.685059 
z"/>
<path fill="#60ADDF" opacity="1.000000" stroke="none" 
	d="
M1060.981445,807.629395 
	C1063.854858,809.980774 1066.267822,812.369507 1069.090210,814.084045 
	C1073.723267,816.898376 1074.715820,820.164673 1070.925415,825.125366 
	C1066.250488,821.376404 1061.500488,817.622681 1056.810791,813.794983 
	C1046.616943,805.474792 1036.527832,797.023560 1026.225708,788.840271 
	C1023.677002,786.815796 1024.406006,784.922424 1025.331787,782.788025 
	C1026.268311,780.628845 1026.487549,777.984680 1030.119751,778.131348 
	C1049.243530,778.903381 1068.375366,779.471069 1087.529785,780.110596 
	C1086.401489,787.698547 1085.969482,788.063904 1078.826050,787.662048 
	C1066.218872,786.952942 1066.122070,786.919250 1061.900879,799.053101 
	C1060.998169,801.648010 1061.077881,804.584595 1060.981445,807.629395 
M1052.348145,786.097473 
	C1045.922607,786.097473 1039.497070,786.097473 1033.421021,786.097473 
	C1039.783813,791.149048 1046.711914,796.649353 1054.158081,802.561035 
	C1056.242798,796.810486 1058.062378,791.791016 1060.121948,786.109680 
	C1057.252441,786.109680 1055.271362,786.109680 1052.348145,786.097473 
z"/>
<path fill="#10466D" opacity="1.000000" stroke="none" 
	d="
M505.907623,657.102173 
	C507.501556,670.758728 509.016449,683.987366 510.619324,697.205322 
	C511.589020,705.201843 509.922302,712.607910 505.631927,720.920776 
	C503.961090,703.816101 506.024445,686.671875 490.638092,674.962952 
	C489.632172,677.295288 488.752930,679.333862 487.847900,681.432251 
	C476.424927,668.112549 482.264160,654.589172 503.420135,646.722412 
	C504.249481,650.095764 505.057587,653.382751 505.907623,657.102173 
z"/>
<path fill="#61ADDF" opacity="1.000000" stroke="none" 
	d="
M763.293457,1107.213135 
	C761.226440,1107.916504 759.527222,1108.497192 757.408020,1109.221313 
	C751.048523,1090.856079 744.822876,1072.877197 738.438538,1054.440186 
	C747.782532,1051.193481 756.510986,1048.053101 765.316589,1045.146484 
	C769.690430,1043.702759 768.832581,1047.687378 770.279785,1050.139404 
	C762.716248,1052.790405 755.566650,1055.296387 747.774353,1058.027466 
	C749.735657,1063.623657 751.618286,1068.995483 753.696228,1074.924316 
	C760.877991,1072.527588 767.596680,1070.285278 774.761780,1067.894043 
	C775.497009,1069.792847 776.177734,1071.550903 776.972595,1073.603882 
	C769.724304,1076.229858 762.901672,1078.701782 755.804932,1081.272949 
	C758.075684,1087.784424 760.196289,1093.864990 762.508850,1100.496216 
	C770.463196,1097.830566 778.089783,1095.274780 786.088745,1092.594116 
	C786.857483,1094.661499 787.468140,1096.303833 788.276733,1098.478516 
	C779.865906,1101.421143 771.763550,1104.255737 763.293457,1107.213135 
z"/>
<path fill="#61ADDF" opacity="1.000000" stroke="none" 
	d="
M269.837128,948.836304 
	C273.859344,944.832031 277.632141,941.078308 281.887085,936.844849 
	C288.721527,944.369385 295.520782,951.855225 302.709351,959.769592 
	C302.386139,960.121216 301.096252,961.524231 299.675079,963.070129 
	C293.882050,957.584045 288.339111,952.334839 282.990509,947.269592 
	C278.693787,951.319458 274.604492,955.173828 270.536255,959.008362 
	C275.988953,964.315430 281.178711,969.366638 286.612885,974.655640 
	C284.573944,976.795837 283.371216,978.058289 281.680481,979.832947 
	C276.255798,974.612854 271.052521,969.605835 266.655518,965.374695 
	C261.390625,969.852539 256.467651,974.039612 251.834976,977.979736 
	C257.942139,984.151611 263.624725,989.894470 269.939484,996.276184 
	C267.614868,998.147461 266.101532,999.365723 264.071960,1000.999512 
	C256.932251,993.351807 249.701752,985.606812 242.146423,977.513916 
	C250.893890,968.452209 260.240784,958.769531 269.837128,948.836304 
z"/>
<path fill="#60ADDF" opacity="1.000000" stroke="none" 
	d="
M232.041412,945.001831 
	C228.848816,946.125732 226.026337,947.127197 223.220901,948.174316 
	C216.018204,950.862671 216.021240,950.870789 211.331253,943.809631 
	C221.957214,927.065002 232.648941,910.216675 243.350754,893.352478 
	C249.550369,897.970825 249.637650,898.288452 245.666550,904.313782 
	C238.061310,915.853271 230.416275,927.366394 222.806076,938.902588 
	C222.477737,939.400269 222.332733,940.018799 221.735016,941.477417 
	C229.876740,938.345642 237.238373,935.506531 244.605713,932.682251 
	C250.974625,930.240784 257.345978,927.805542 263.723663,925.387085 
	C269.718658,923.113770 270.156433,923.310852 273.700073,929.895569 
	C259.909637,934.908081 246.164474,939.904114 232.041412,945.001831 
z"/>
<path fill="#0F456C" opacity="1.000000" stroke="none" 
	d="
M1088.214600,467.030273 
	C1089.307129,470.357269 1090.282837,473.336182 1091.453735,476.911072 
	C1070.456177,483.721954 1049.704346,490.453125 1028.565186,497.309937 
	C1027.284058,493.425354 1026.108276,489.860077 1024.764404,485.785156 
	C1026.898193,485.036163 1028.837891,484.310669 1030.805664,483.671509 
	C1048.318848,477.982452 1065.826538,472.275116 1083.373779,466.692566 
	C1084.804688,466.237335 1086.516479,466.664825 1088.214600,467.030273 
z"/>
<path fill="#0F456C" opacity="1.000000" stroke="none" 
	d="
M784.589111,158.674713 
	C778.151794,176.126556 771.887573,193.228577 765.395325,210.953064 
	C761.610901,209.583282 757.976929,208.267960 753.814819,206.761475 
	C761.382263,186.133896 768.881592,165.692093 776.586548,144.689774 
	C780.437195,146.061478 784.084167,147.360626 788.101013,148.791504 
	C786.919189,152.166061 785.840698,155.245483 784.589111,158.674713 
z"/>
<path fill="#0F456C" opacity="1.000000" stroke="none" 
	d="
M449.922638,179.994324 
	C452.863556,188.122940 455.696716,195.875473 458.686615,204.056824 
	C454.802185,205.537201 451.300354,206.871765 447.234650,208.421234 
	C439.628540,187.747910 432.096008,167.274643 424.409576,146.383026 
	C428.203003,144.916260 431.719513,143.556580 435.835571,141.965057 
	C440.516418,154.572830 445.165680,167.095535 449.922638,179.994324 
z"/>
<path fill="#0F456C" opacity="1.000000" stroke="none" 
	d="
M192.598724,341.366577 
	C189.310242,339.065216 186.310318,336.979889 182.820770,334.554230 
	C185.111267,331.256622 187.324066,328.070892 189.840958,324.447388 
	C208.027817,337.121185 225.988998,349.637695 244.119873,362.272461 
	C241.758469,365.674713 239.594864,368.791962 237.102783,372.382477 
	C222.269028,362.049500 207.578156,351.816040 192.598724,341.366577 
z"/>
<path fill="#60ADDF" opacity="1.000000" stroke="none" 
	d="
M363.934479,1010.773682 
	C359.664490,1009.239258 356.299835,1010.098755 353.750153,1013.328369 
	C351.151154,1016.620361 351.489899,1020.169128 353.576874,1023.577576 
	C355.659485,1026.978760 357.967773,1030.241821 360.045380,1033.645874 
	C364.333771,1040.671753 364.093323,1047.482422 359.474243,1053.117188 
	C354.714874,1058.923096 347.699524,1060.728271 340.054047,1057.736938 
	C333.240143,1055.071045 327.750397,1050.704712 323.907104,1043.874878 
	C325.585419,1042.486206 327.067139,1041.260132 328.105560,1040.400879 
	C332.098389,1043.930420 335.474823,1047.628052 339.523865,1050.310181 
	C344.360962,1053.514404 349.135712,1052.823730 352.309326,1049.533081 
	C355.808685,1045.904663 356.152374,1041.408569 353.050049,1036.270508 
	C351.162262,1033.144043 348.814331,1030.295044 346.933533,1027.164795 
	C342.787292,1020.264587 343.114624,1013.947571 347.669678,1008.676819 
	C352.189941,1003.446411 358.910248,1001.513794 365.774658,1004.800232 
	C370.997192,1007.300659 375.522583,1011.257080 381.210846,1015.149231 
	C378.454529,1017.424683 376.981598,1018.640625 375.876251,1019.553162 
	C371.867462,1016.556641 368.085449,1013.729675 363.934479,1010.773682 
z"/>
<path fill="#60ADDF" opacity="1.000000" stroke="none" 
	d="
M824.081726,1056.738892 
	C833.277100,1065.672729 833.031738,1076.091797 822.994385,1083.267822 
	C818.823425,1086.249634 813.513062,1087.910278 808.485474,1089.348999 
	C802.906067,1090.945435 802.023865,1089.819458 802.304382,1083.840210 
	C806.511719,1082.879761 810.800537,1082.309204 814.790588,1080.895508 
	C820.995544,1078.697144 824.005005,1073.784912 822.893311,1068.807617 
	C821.732971,1063.612305 817.883179,1061.020996 811.148804,1060.971191 
	C807.324585,1060.942993 803.486389,1061.203491 799.678467,1060.959595 
	C793.575867,1060.568726 788.924927,1057.788574 786.495239,1051.914185 
	C783.992615,1045.863525 785.289673,1040.488525 789.610352,1035.811890 
	C794.855530,1030.134521 801.621521,1027.872559 809.546814,1027.196045 
	C809.938293,1029.356812 810.280884,1031.248047 810.641602,1033.239258 
	C807.147827,1034.111694 803.725647,1034.639771 800.551331,1035.829224 
	C794.528381,1038.086060 791.950317,1042.207886 792.973755,1047.120483 
	C793.849976,1051.326538 797.768555,1053.813599 803.854736,1053.916626 
	C807.843933,1053.984131 811.869080,1053.618286 815.813721,1054.043823 
	C818.526611,1054.336670 821.129028,1055.653442 824.081726,1056.738892 
z"/>
<path fill="#61ADDF" opacity="1.000000" stroke="none" 
	d="
M1017.670715,817.051025 
	C1017.917114,818.121582 1018.209717,819.137329 1017.834351,819.729919 
	C1017.045410,820.975220 1015.801392,821.922363 1014.927307,823.125061 
	C1009.202576,831.001770 1006.339111,839.418640 1011.363708,848.682068 
	C1016.102051,857.417786 1028.371338,863.562866 1038.042236,861.896729 
	C1048.202271,860.146179 1052.807251,852.551575 1055.761597,843.601624 
	C1056.321289,841.906250 1056.680908,840.144897 1057.199829,838.157410 
	C1059.254761,838.674561 1060.951416,839.101501 1062.578613,839.510986 
	C1061.935303,856.770630 1048.184692,870.579773 1032.500244,870.043152 
	C1015.819824,869.472534 1001.469482,855.013855 1002.109741,839.148071 
	C1002.458313,830.509277 1006.167847,823.173523 1011.794067,816.699036 
	C1013.856262,814.325989 1015.584106,814.445007 1017.670715,817.051025 
z"/>
<path fill="#62AEDF" opacity="1.000000" stroke="none" 
	d="
M599.012573,1110.999756 
	C598.766235,1100.188843 598.704346,1089.868774 598.189575,1079.571411 
	C597.975159,1075.281860 599.508423,1074.128418 603.557068,1074.243652 
	C612.023254,1074.484375 620.501099,1074.316528 628.966309,1074.316528 
	C630.743042,1080.048950 630.351562,1080.666870 624.539734,1080.730103 
	C618.584656,1080.795044 612.628296,1080.744507 606.621155,1080.744507 
	C606.621155,1087.467407 606.621155,1093.511719 606.621155,1099.883789 
	C613.938110,1099.883789 620.719727,1099.883789 627.872375,1099.883789 
	C628.148254,1101.876831 628.385315,1103.589844 628.721130,1106.016602 
	C621.251526,1106.016602 614.350830,1106.016602 607.079956,1106.016602 
	C607.079956,1115.063843 607.079956,1123.477661 607.079956,1131.774780 
	C599.970764,1133.856445 599.232239,1133.331055 599.155273,1126.479614 
	C599.099243,1121.486450 599.060608,1116.493042 599.012573,1110.999756 
z"/>
<path fill="#0F456C" opacity="1.000000" stroke="none" 
	d="
M413.630310,502.617004 
	C413.406799,499.094910 413.229126,496.028381 413.051453,492.961853 
	C413.554321,492.799103 414.057190,492.636322 414.560059,492.473572 
	C416.006622,495.436157 417.416138,498.417511 418.907684,501.357239 
	C421.670685,506.802948 423.782227,512.754578 427.415771,517.547302 
	C435.397247,528.075012 433.138855,539.179626 430.469177,550.398926 
	C430.126221,551.840271 427.708710,553.714478 426.242554,553.722961 
	C424.487701,553.733093 421.700775,552.342773 421.143646,550.880005 
	C419.041992,545.362122 416.942841,539.664124 416.174042,533.857361 
	C414.824524,523.664185 414.455688,513.341187 413.630310,502.617004 
z"/>
<path fill="#60ADDF" opacity="1.000000" stroke="none" 
	d="
M463.008698,1069.063232 
	C461.679230,1063.003052 460.402954,1057.358887 459.115448,1051.664917 
	C465.948456,1051.453491 466.994965,1052.227295 468.207550,1058.400879 
	C469.771454,1066.363037 471.285156,1074.335205 472.428925,1080.270996 
	C477.713806,1075.796875 484.123077,1071.093018 489.605835,1065.483521 
	C493.470978,1061.529053 496.786194,1059.967285 500.257233,1062.530884 
	C495.006958,1068.474854 489.946014,1075.112793 483.942200,1080.745483 
	C477.975983,1086.342773 472.825989,1091.938721 471.495850,1100.422852 
	C470.836700,1104.627075 469.114716,1108.664551 467.727081,1113.262817 
	C465.408783,1112.690918 463.398743,1112.195068 460.154938,1111.394897 
	C465.458893,1097.573853 469.068573,1083.711670 463.008698,1069.063232 
z"/>
<path fill="#61ADDF" opacity="1.000000" stroke="none" 
	d="
M416.773071,1086.796387 
	C416.302521,1087.916382 415.971191,1088.679932 415.634857,1089.441284 
	C413.061859,1095.264771 412.878601,1095.309937 406.544464,1091.177002 
	C412.935181,1075.854126 419.376740,1060.409424 426.042206,1044.427734 
	C420.744415,1042.088501 415.522247,1039.782715 410.054169,1037.368286 
	C410.888092,1035.453735 411.600983,1033.817017 412.588257,1031.550293 
	C425.757568,1037.061768 438.705505,1042.480591 452.055481,1048.067627 
	C451.139496,1050.198242 450.386108,1051.950562 449.516205,1053.973877 
	C444.047424,1051.781860 438.867065,1049.705322 433.232330,1047.446777 
	C427.673950,1060.725098 422.291962,1073.581909 416.773071,1086.796387 
z"/>
<path fill="#60ADDF" opacity="1.000000" stroke="none" 
	d="
M997.356384,928.628418 
	C986.629089,920.470825 976.172485,912.545593 965.232849,904.254211 
	C961.641663,908.846924 958.208435,913.237488 954.505127,917.973511 
	C952.849487,916.751465 951.327698,915.628235 949.380798,914.191284 
	C958.013000,902.759216 966.385925,891.670532 974.995972,880.267883 
	C976.827026,881.415527 978.306824,882.343018 980.419617,883.667175 
	C976.974365,888.383545 973.702515,892.862488 969.934082,898.021240 
	C983.487671,908.336792 996.894348,918.540527 1010.668762,929.024170 
	C1009.104248,931.218933 1007.806335,933.039795 1006.273560,935.190125 
	C1003.197632,932.938538 1000.412415,930.899658 997.356384,928.628418 
z"/>
<path fill="#61ADDF" opacity="1.000000" stroke="none" 
	d="
M919.804016,945.857239 
	C928.187256,937.049194 936.325562,928.502869 944.700928,919.707581 
	C946.300293,921.154175 947.619507,922.347412 949.350525,923.913086 
	C945.459412,928.228271 941.720947,932.374207 937.517639,937.035583 
	C949.812256,948.743408 962.046814,960.394043 975.017944,972.746094 
	C973.014587,974.539185 971.348633,976.030396 969.300659,977.863464 
	C956.799805,966.041138 944.612122,954.515015 931.967224,942.556458 
	C927.968750,946.773010 924.129211,950.821899 919.689819,955.503418 
	C918.204773,953.844299 916.936768,952.427612 915.358521,950.664307 
	C916.912048,948.983276 918.235596,947.551086 919.804016,945.857239 
z"/>
<path fill="#61ADDF" opacity="1.000000" stroke="none" 
	d="
M833.835938,1011.845947 
	C840.846069,1007.647644 847.545532,1003.639893 854.707031,999.355652 
	C855.911804,1001.135010 856.972778,1002.701904 858.276611,1004.627563 
	C853.215698,1007.768677 848.466736,1010.716187 843.251404,1013.953186 
	C852.060059,1028.671265 860.652893,1043.028931 869.207520,1057.322632 
	C863.919312,1062.635620 863.443176,1062.587036 859.828003,1056.591797 
	C852.109741,1043.792114 844.391174,1030.992676 836.548035,1017.986450 
	C831.547546,1020.893799 826.833862,1023.634338 821.650635,1026.647827 
	C820.482910,1024.818481 819.488281,1023.260376 818.241882,1021.307861 
	C823.634216,1018.036743 828.579773,1015.036621 833.835938,1011.845947 
z"/>
<path fill="#60ADDF" opacity="1.000000" stroke="none" 
	d="
M380.169373,1053.147949 
	C385.483032,1042.955811 390.637573,1033.095581 396.050781,1022.740601 
	C398.310059,1023.924255 400.267548,1024.949829 402.773956,1026.262939 
	C393.865509,1043.443237 385.167633,1060.217529 376.207550,1077.497437 
	C373.929443,1076.384155 371.936249,1075.410156 369.440887,1074.190796 
	C373.097809,1067.025024 376.554016,1060.252441 380.169373,1053.147949 
z"/>
<path fill="#61ADDF" opacity="1.000000" stroke="none" 
	d="
M188.921387,914.368286 
	C187.781662,912.724915 186.883560,911.368530 185.769424,909.685913 
	C201.729645,898.707397 217.419006,887.915222 233.436462,876.897339 
	C234.861191,879.007080 236.114853,880.863464 237.667236,883.162231 
	C231.357971,887.551208 225.416290,891.715881 219.441742,895.832947 
	C210.962433,901.676208 202.496582,907.541016 193.926071,913.248047 
	C192.609756,914.124634 190.763947,914.206055 188.921387,914.368286 
z"/>
<path fill="#61ADDF" opacity="1.000000" stroke="none" 
	d="
M1010.437500,889.554321 
	C1000.656921,883.256714 991.173462,877.167236 981.239197,870.788269 
	C982.508667,868.573669 983.597900,866.673523 985.015991,864.199646 
	C1001.450256,874.719055 1017.449280,884.959900 1033.768311,895.405579 
	C1032.374390,897.652405 1031.267822,899.436157 1029.799072,901.803772 
	C1023.236328,897.658691 1016.985413,893.710571 1010.437500,889.554321 
z"/>
<path fill="#154A70" opacity="1.000000" stroke="none" 
	d="
M483.309387,571.880798 
	C481.769745,566.790039 480.350433,562.098999 478.860229,557.173523 
	C492.157074,563.238159 497.647064,575.875488 493.563446,591.477905 
	C491.859100,597.989685 489.265564,604.268738 487.213837,610.252625 
	C485.963409,597.705200 484.696533,584.992859 483.309387,571.880798 
z"/>
<path fill="#10466D" opacity="1.000000" stroke="none" 
	d="
M393.216553,482.194702 
	C389.954773,483.144653 387.053741,483.960876 383.091827,485.075592 
	C385.527893,478.020844 387.070892,472.052032 389.753357,466.648956 
	C390.618927,464.905487 394.656921,463.566986 396.935059,463.938110 
	C401.699890,464.714325 406.259460,466.750580 411.201569,468.366882 
	C405.958893,474.716278 401.238861,480.317444 393.216553,482.194702 
z"/>
<path fill="#10466D" opacity="1.000000" stroke="none" 
	d="
M550.821411,567.920288 
	C554.874512,563.894958 558.741943,560.184265 563.080872,556.021118 
	C567.591125,574.101440 562.491028,582.981628 546.283997,586.713013 
	C545.940491,580.072510 547.181946,573.909180 550.821411,567.920288 
z"/>
<path fill="#154A70" opacity="1.000000" stroke="none" 
	d="
M399.128418,531.816528 
	C406.042572,536.174866 409.688751,542.044495 408.987274,550.877869 
	C399.209198,542.766724 389.431152,534.655518 379.653076,526.544373 
	C380.100281,525.793640 380.547516,525.042969 380.994720,524.292236 
	C386.933594,526.740295 392.872437,529.188416 399.128418,531.816528 
z"/>
<path fill="#154A70" opacity="1.000000" stroke="none" 
	d="
M390.078674,516.016296 
	C388.625061,517.114441 387.438629,517.978394 385.485291,519.400757 
	C383.086700,515.937561 380.552399,512.785461 378.712006,509.270081 
	C378.243195,508.374542 379.769714,505.174133 380.732361,505.001587 
	C385.619904,504.125610 390.623596,503.897430 395.586578,503.442322 
	C395.901459,503.960236 396.216339,504.478149 396.531189,504.996063 
	C394.469391,508.591400 392.407593,512.186707 390.078674,516.016296 
z"/>
<path fill="#154A70" opacity="1.000000" stroke="none" 
	d="
M468.796997,676.255371 
	C466.063263,678.730530 463.438385,680.824341 460.813538,682.918091 
	C460.417694,682.624756 460.021881,682.331421 459.626068,682.038086 
	C460.731903,674.227478 461.837708,666.416809 462.943542,658.606201 
	C463.411377,658.503418 463.879211,658.400635 464.347046,658.297852 
	C465.866669,664.156555 467.386292,670.015320 468.796997,676.255371 
z"/>
<path fill="#0D446C" opacity="1.000000" stroke="none" 
	d="
M293.975647,860.968323 
	C293.869568,861.249329 293.735504,861.494568 293.601410,861.739807 
	C293.512329,861.426575 293.423248,861.113342 293.614441,860.829346 
	C293.894745,860.858643 293.947662,860.932556 293.975647,860.968323 
z"/>
<path fill="#0B426A" opacity="1.000000" stroke="none" 
	d="
M500.328430,477.397278 
	C500.092468,477.412231 499.694244,477.221375 499.551086,476.920593 
	C499.926178,476.937592 500.046173,477.064545 500.328430,477.397278 
z"/>

</svg>